<?xml version="1.0" encoding="UTF-8" standalone="no"?>
<svg
   version="1.1"
   width="724"
   height="724"
   fill="none"
   viewBox="0 0 59.390625 59.390626"
   id="svg3"
   sodipodi:docname="mark.svg"
   inkscape:version="1.4 (e7c3feb100, 2024-10-09)"
   inkscape:export-filename="mark.png"
   inkscape:export-xdpi="96"
   inkscape:export-ydpi="96"
   xmlns:inkscape="http://www.inkscape.org/namespaces/inkscape"
   xmlns:sodipodi="http://sodipodi.sourceforge.net/DTD/sodipodi-0.dtd"
   xmlns="http://www.w3.org/2000/svg"
   xmlns:svg="http://www.w3.org/2000/svg">
  <defs
     id="defs3" />
  <sodipodi:namedview
     id="namedview3"
     pagecolor="#505050"
     bordercolor="#ffffff"
     borderopacity="1"
     inkscape:showpageshadow="0"
     inkscape:pageopacity="0"
     inkscape:pagecheckerboard="1"
     inkscape:deskcolor="#505050"
     inkscape:zoom="0.47363281"
     inkscape:cx="274.47423"
     inkscape:cy="370.54021"
     inkscape:window-width="1366"
     inkscape:window-height="755"
     inkscape:window-x="0"
     inkscape:window-y="0"
     inkscape:window-maximized="1"
     inkscape:current-layer="svg3" />
  <g
     transform="translate(74.597887,-182.55916)"
     id="g3"
     style="fill:#7878ff;fill-opacity:1">
    <g
       style="fill:#7878ff;fill-opacity:1"
       id="g2">
      <g
         transform="matrix(9.8408705,0.22272606,-0.18682395,10.038629,-61.80101,193.44586)"
         aria-label="S"
         id="g1"
         style="fill:#7878ff;fill-opacity:1">
        <path
           d="m 0.93266455,2.0715386 c 0,0 -0.89783789,1.2873408 0.32861015,1.1529108 C 2.66287,3.0708215 3.3884399,2.6579723 3.8877365,2.3950747 3.7218754,2.7667317 2.2304965,3.7232997 1.1099533,3.8920843 0.46786954,4.0172667 -0.15936321,3.9755797 -0.30554458,3.5203771 -0.49766829,2.922112 0.93266455,2.0715386 0.93266455,2.0715386 L -0.37478946,2.212297 1.5544231,1.5333312 0.96286627,2.8206178 c 0,0 0.48407913,-0.1478552 1.04529853,-0.3463262 C 2.7666399,2.2060626 2.9996288,1.9677423 2.7231484,1.8714334 2.099182,1.6540806 1.8199065,1.5957311 1.3671123,1.4596281 1.0395119,1.3611566 0.82581089,1.3068178 0.38262773,1.1667474 0.04005011,1.058474 -0.48614777,0.94778669 -0.36510667,0.58859445 -0.26814199,0.30083096 0.29828613,0.07637422 0.74613995,-0.04216471 1.6960071,-0.29357797 3.5196857,-0.37754229 3.7821685,-0.13177489 4.0108285,0.08232179 3.6640848,0.24266371 2.819567,0.3613964 2.2368754,0.44331851 0.91924472,0.52282774 0.91924472,0.52282774 c 0,0 0.92669998,-0.15149178 1.33654468,-0.21695688 0.3051938,-0.0487492 1.4050081,-0.37063422 0.5562497,-0.3745653 C 2.5969536,-0.06968835 2.0498286,2.8446394e-4 1.7632321,0.04963215 1.5501557,0.08632036 1.016088,0.20388872 0.79062195,0.37171496 0.62282542,0.49661391 0.9507005,0.59842268 1.4529764,0.73839541 L 2.5133438,1.0218545 C 3.4471844,1.2714902 3.7894708,1.296718 3.8740202,1.6725421 3.9489557,2.0056688 3.434714,2.3481986 2.9829713,2.4961618 2.1138162,2.7808446 1.5588359,2.7669033 0.96286627,2.8206178 Z"
           id="path1"
           style="stroke-width:1.05;fill:#7878ff;fill-opacity:1" />
      </g>
    </g>
  </g>
</svg>
